<?xml version="1.0" encoding="UTF-8" standalone="no"?>
<!DOCTYPE svg PUBLIC "-//W3C//DTD SVG 1.1//EN"
 "http://www.w3.org/Graphics/SVG/1.1/DTD/svg11.dtd">
<!-- Generated by graphviz version 2.43.0 (0)
 -->
<!-- Title: snakemake_dag Pages: 1 -->
<svg width="304pt" height="260pt"
 viewBox="0.00 0.00 304.00 260.00" xmlns="http://www.w3.org/2000/svg" xmlns:xlink="http://www.w3.org/1999/xlink">
<g id="graph0" class="graph" transform="scale(1 1) rotate(0) translate(4 256)">
<title>snakemake_dag</title>
<polygon fill="white" stroke="transparent" points="-4,4 -4,-256 300,-256 300,4 -4,4"/>
<!-- 0 -->
<g id="node1" class="node">
<title>0</title>
<path fill="none" stroke="#d85656" stroke-width="2" d="M166,-36C166,-36 136,-36 136,-36 130,-36 124,-30 124,-24 124,-24 124,-12 124,-12 124,-6 130,0 136,0 136,0 166,0 166,0 172,0 178,-6 178,-12 178,-12 178,-24 178,-24 178,-30 172,-36 166,-36"/>
<text text-anchor="middle" x="151" y="-15.5" font-family="sans" font-size="10.00">all</text>
</g>
<!-- 1 -->
<g id="node2" class="node">
<title>1</title>
<path fill="none" stroke="#59d856" stroke-width="2" d="M134,-108C134,-108 12,-108 12,-108 6,-108 0,-102 0,-96 0,-96 0,-84 0,-84 0,-78 6,-72 12,-72 12,-72 134,-72 134,-72 140,-72 146,-78 146,-84 146,-84 146,-96 146,-96 146,-102 140,-108 134,-108"/>
<text text-anchor="middle" x="73" y="-87.5" font-family="sans" font-size="10.00">species_trees_comparison</text>
</g>
<!-- 1&#45;&gt;0 -->
<g id="edge1" class="edge">
<title>1&#45;&gt;0</title>
<path fill="none" stroke="grey" stroke-width="2" d="M92.28,-71.7C101.92,-63.05 113.73,-52.45 124.23,-43.03"/>
<polygon fill="grey" stroke="grey" stroke-width="2" points="126.84,-45.39 131.94,-36.1 122.16,-40.18 126.84,-45.39"/>
</g>
<!-- 2 -->
<g id="node3" class="node">
<title>2</title>
<path fill="none" stroke="#56a9d8" stroke-width="2" d="M284,-108C284,-108 176,-108 176,-108 170,-108 164,-102 164,-96 164,-96 164,-84 164,-84 164,-78 170,-72 176,-72 176,-72 284,-72 284,-72 290,-72 296,-78 296,-84 296,-84 296,-96 296,-96 296,-102 290,-108 284,-108"/>
<text text-anchor="middle" x="230" y="-87.5" font-family="sans" font-size="10.00">visualize_species_trees</text>
</g>
<!-- 2&#45;&gt;0 -->
<g id="edge2" class="edge">
<title>2&#45;&gt;0</title>
<path fill="none" stroke="grey" stroke-width="2" d="M210.47,-71.7C200.62,-62.97 188.51,-52.24 177.8,-42.75"/>
<polygon fill="grey" stroke="grey" stroke-width="2" points="180.11,-40.12 170.3,-36.1 175.47,-45.36 180.11,-40.12"/>
</g>
<!-- 3 -->
<g id="node4" class="node">
<title>3</title>
<path fill="none" stroke="#afd856" stroke-width="2" d="M122,-180C122,-180 78,-180 78,-180 72,-180 66,-174 66,-168 66,-168 66,-156 66,-156 66,-150 72,-144 78,-144 78,-144 122,-144 122,-144 128,-144 134,-150 134,-156 134,-156 134,-168 134,-168 134,-174 128,-180 122,-180"/>
<text text-anchor="middle" x="100" y="-159.5" font-family="sans" font-size="10.00">msa_trees</text>
</g>
<!-- 3&#45;&gt;1 -->
<g id="edge3" class="edge">
<title>3&#45;&gt;1</title>
<path fill="none" stroke="grey" stroke-width="2" d="M93.33,-143.7C90.29,-135.81 86.62,-126.3 83.24,-117.55"/>
<polygon fill="grey" stroke="grey" stroke-width="2" points="86.46,-116.17 79.6,-108.1 79.93,-118.69 86.46,-116.17"/>
</g>
<!-- 3&#45;&gt;2 -->
<g id="edge5" class="edge">
<title>3&#45;&gt;2</title>
<path fill="none" stroke="grey" stroke-width="2" d="M131.8,-143.88C149.11,-134.55 170.72,-122.92 189.26,-112.94"/>
<polygon fill="grey" stroke="grey" stroke-width="2" points="190.93,-116.01 198.08,-108.19 187.61,-109.85 190.93,-116.01"/>
</g>
<!-- 4 -->
<g id="node5" class="node">
<title>4</title>
<path fill="none" stroke="#56d8a9" stroke-width="2" d="M240,-180C240,-180 164,-180 164,-180 158,-180 152,-174 152,-168 152,-168 152,-156 152,-156 152,-150 158,-144 164,-144 164,-144 240,-144 240,-144 246,-144 252,-150 252,-156 252,-156 252,-168 252,-168 252,-174 246,-180 240,-180"/>
<text text-anchor="middle" x="202" y="-159.5" font-family="sans" font-size="10.00">orthofinder_trees</text>
</g>
<!-- 4&#45;&gt;1 -->
<g id="edge4" class="edge">
<title>4&#45;&gt;1</title>
<path fill="none" stroke="grey" stroke-width="2" d="M170.44,-143.88C153.34,-134.6 132.02,-123.03 113.68,-113.08"/>
<polygon fill="grey" stroke="grey" stroke-width="2" points="115.14,-109.88 104.68,-108.19 111.8,-116.04 115.14,-109.88"/>
</g>
<!-- 4&#45;&gt;2 -->
<g id="edge6" class="edge">
<title>4&#45;&gt;2</title>
<path fill="none" stroke="grey" stroke-width="2" d="M208.92,-143.7C212.07,-135.81 215.88,-126.3 219.38,-117.55"/>
<polygon fill="grey" stroke="grey" stroke-width="2" points="222.69,-118.69 223.16,-108.1 216.19,-116.09 222.69,-118.69"/>
</g>
<!-- 5 -->
<g id="node6" class="node">
<title>5</title>
<path fill="none" stroke="#d8ac56" stroke-width="2" d="M200,-252C200,-252 102,-252 102,-252 96,-252 90,-246 90,-240 90,-240 90,-228 90,-228 90,-222 96,-216 102,-216 102,-216 200,-216 200,-216 206,-216 212,-222 212,-228 212,-228 212,-240 212,-240 212,-246 206,-252 200,-252"/>
<text text-anchor="middle" x="151" y="-231.5" font-family="sans" font-size="10.00">longest_gene_variant</text>
</g>
<!-- 5&#45;&gt;3 -->
<g id="edge7" class="edge">
<title>5&#45;&gt;3</title>
<path fill="none" stroke="grey" stroke-width="2" d="M138.39,-215.7C132.4,-207.47 125.12,-197.48 118.52,-188.42"/>
<polygon fill="grey" stroke="grey" stroke-width="2" points="121.18,-186.13 112.46,-180.1 115.52,-190.25 121.18,-186.13"/>
</g>
<!-- 5&#45;&gt;4 -->
<g id="edge8" class="edge">
<title>5&#45;&gt;4</title>
<path fill="none" stroke="grey" stroke-width="2" d="M163.61,-215.7C169.6,-207.47 176.88,-197.48 183.48,-188.42"/>
<polygon fill="grey" stroke="grey" stroke-width="2" points="186.48,-190.25 189.54,-180.1 180.82,-186.13 186.48,-190.25"/>
</g>
</g>
</svg>
