<?xml version="1.0" encoding="UTF-8" standalone="no"?>
<!DOCTYPE svg PUBLIC "-//W3C//DTD SVG 1.1//EN"
 "http://www.w3.org/Graphics/SVG/1.1/DTD/svg11.dtd">
<!-- Generated by graphviz version 2.43.0 (0)
 -->
<!-- Title: snakemake_dag Pages: 1 -->
<svg width="304pt" height="260pt"
 viewBox="0.00 0.00 304.00 260.00" xmlns="http://www.w3.org/2000/svg" xmlns:xlink="http://www.w3.org/1999/xlink">
<g id="graph0" class="graph" transform="scale(1 1) rotate(0) translate(4 256)">
<title>snakemake_dag</title>
<polygon fill="white" stroke="transparent" points="-4,4 -4,-256 300,-256 300,4 -4,4"/>
<!-- 0 -->
<g id="node1" class="node">
<title>0</title>
<path fill="none" stroke="#56d8a9" stroke-width="2" d="M159,-36C159,-36 129,-36 129,-36 123,-36 117,-30 117,-24 117,-24 117,-12 117,-12 117,-6 123,0 129,0 129,0 159,0 159,0 165,0 171,-6 171,-12 171,-12 171,-24 171,-24 171,-30 165,-36 159,-36"/>
<text text-anchor="middle" x="144" y="-15.5" font-family="sans" font-size="10.00">all</text>
</g>
<!-- 1 -->
<g id="node2" class="node">
<title>1</title>
<path fill="none" stroke="#59d856" stroke-width="2" d="M120,-108C120,-108 12,-108 12,-108 6,-108 0,-102 0,-96 0,-96 0,-84 0,-84 0,-78 6,-72 12,-72 12,-72 120,-72 120,-72 126,-72 132,-78 132,-84 132,-84 132,-96 132,-96 132,-102 126,-108 120,-108"/>
<text text-anchor="middle" x="66" y="-87.5" font-family="sans" font-size="10.00">visualize_species_trees</text>
</g>
<!-- 1&#45;&gt;0 -->
<g id="edge1" class="edge">
<title>1&#45;&gt;0</title>
<path fill="none" stroke="grey" stroke-width="2" d="M85.28,-71.7C94.92,-63.05 106.73,-52.45 117.23,-43.03"/>
<polygon fill="grey" stroke="grey" stroke-width="2" points="119.84,-45.39 124.94,-36.1 115.16,-40.18 119.84,-45.39"/>
</g>
<!-- 2 -->
<g id="node3" class="node">
<title>2</title>
<path fill="none" stroke="#56a9d8" stroke-width="2" d="M284,-108C284,-108 162,-108 162,-108 156,-108 150,-102 150,-96 150,-96 150,-84 150,-84 150,-78 156,-72 162,-72 162,-72 284,-72 284,-72 290,-72 296,-78 296,-84 296,-84 296,-96 296,-96 296,-102 290,-108 284,-108"/>
<text text-anchor="middle" x="223" y="-87.5" font-family="sans" font-size="10.00">species_trees_comparison</text>
</g>
<!-- 2&#45;&gt;0 -->
<g id="edge2" class="edge">
<title>2&#45;&gt;0</title>
<path fill="none" stroke="grey" stroke-width="2" d="M203.47,-71.7C193.62,-62.97 181.51,-52.24 170.8,-42.75"/>
<polygon fill="grey" stroke="grey" stroke-width="2" points="173.11,-40.12 163.3,-36.1 168.47,-45.36 173.11,-40.12"/>
</g>
<!-- 3 -->
<g id="node4" class="node">
<title>3</title>
<path fill="none" stroke="#d8ac56" stroke-width="2" d="M131,-180C131,-180 55,-180 55,-180 49,-180 43,-174 43,-168 43,-168 43,-156 43,-156 43,-150 49,-144 55,-144 55,-144 131,-144 131,-144 137,-144 143,-150 143,-156 143,-156 143,-168 143,-168 143,-174 137,-180 131,-180"/>
<text text-anchor="middle" x="93" y="-159.5" font-family="sans" font-size="10.00">orthofinder_trees</text>
</g>
<!-- 3&#45;&gt;1 -->
<g id="edge3" class="edge">
<title>3&#45;&gt;1</title>
<path fill="none" stroke="grey" stroke-width="2" d="M86.33,-143.7C83.29,-135.81 79.62,-126.3 76.24,-117.55"/>
<polygon fill="grey" stroke="grey" stroke-width="2" points="79.46,-116.17 72.6,-108.1 72.93,-118.69 79.46,-116.17"/>
</g>
<!-- 3&#45;&gt;2 -->
<g id="edge5" class="edge">
<title>3&#45;&gt;2</title>
<path fill="none" stroke="grey" stroke-width="2" d="M124.8,-143.88C142.11,-134.55 163.72,-122.92 182.26,-112.94"/>
<polygon fill="grey" stroke="grey" stroke-width="2" points="183.93,-116.01 191.08,-108.19 180.61,-109.85 183.93,-116.01"/>
</g>
<!-- 4 -->
<g id="node5" class="node">
<title>4</title>
<path fill="none" stroke="#afd856" stroke-width="2" d="M217,-180C217,-180 173,-180 173,-180 167,-180 161,-174 161,-168 161,-168 161,-156 161,-156 161,-150 167,-144 173,-144 173,-144 217,-144 217,-144 223,-144 229,-150 229,-156 229,-156 229,-168 229,-168 229,-174 223,-180 217,-180"/>
<text text-anchor="middle" x="195" y="-159.5" font-family="sans" font-size="10.00">msa_trees</text>
</g>
<!-- 4&#45;&gt;1 -->
<g id="edge4" class="edge">
<title>4&#45;&gt;1</title>
<path fill="none" stroke="grey" stroke-width="2" d="M163.44,-143.88C146.34,-134.6 125.02,-123.03 106.68,-113.08"/>
<polygon fill="grey" stroke="grey" stroke-width="2" points="108.14,-109.88 97.68,-108.19 104.8,-116.04 108.14,-109.88"/>
</g>
<!-- 4&#45;&gt;2 -->
<g id="edge6" class="edge">
<title>4&#45;&gt;2</title>
<path fill="none" stroke="grey" stroke-width="2" d="M201.92,-143.7C205.07,-135.81 208.88,-126.3 212.38,-117.55"/>
<polygon fill="grey" stroke="grey" stroke-width="2" points="215.69,-118.69 216.16,-108.1 209.19,-116.09 215.69,-118.69"/>
</g>
<!-- 5 -->
<g id="node6" class="node">
<title>5</title>
<path fill="none" stroke="#d85656" stroke-width="2" d="M193,-252C193,-252 95,-252 95,-252 89,-252 83,-246 83,-240 83,-240 83,-228 83,-228 83,-222 89,-216 95,-216 95,-216 193,-216 193,-216 199,-216 205,-222 205,-228 205,-228 205,-240 205,-240 205,-246 199,-252 193,-252"/>
<text text-anchor="middle" x="144" y="-231.5" font-family="sans" font-size="10.00">longest_gene_variant</text>
</g>
<!-- 5&#45;&gt;3 -->
<g id="edge7" class="edge">
<title>5&#45;&gt;3</title>
<path fill="none" stroke="grey" stroke-width="2" d="M131.39,-215.7C125.4,-207.47 118.12,-197.48 111.52,-188.42"/>
<polygon fill="grey" stroke="grey" stroke-width="2" points="114.18,-186.13 105.46,-180.1 108.52,-190.25 114.18,-186.13"/>
</g>
<!-- 5&#45;&gt;4 -->
<g id="edge8" class="edge">
<title>5&#45;&gt;4</title>
<path fill="none" stroke="grey" stroke-width="2" d="M156.61,-215.7C162.6,-207.47 169.88,-197.48 176.48,-188.42"/>
<polygon fill="grey" stroke="grey" stroke-width="2" points="179.48,-190.25 182.54,-180.1 173.82,-186.13 179.48,-190.25"/>
</g>
</g>
</svg>
